<svg width="18" height="18" viewBox="0 0 18 18" fill="none" xmlns="http://www.w3.org/2000/svg">
<g clip-path="url(#clip0_241_1951)">
<path d="M14.7167 4.63496C14.7124 4.62883 14.7057 4.62592 14.7012 4.62007C14.0317 3.74327 13.169 3.0327 12.1802 2.5436C11.1913 2.0545 10.103 1.80006 8.99985 1.80005C7.89668 1.80004 6.80837 2.05447 5.81954 2.54356C4.83071 3.03264 3.968 3.7432 3.2985 4.61999C3.294 4.62587 3.28722 4.62878 3.28296 4.63496C3.28002 4.63922 3.27986 4.64433 3.27708 4.64864C2.31908 5.89694 1.7998 7.42651 1.7998 9.00005C1.7998 10.5736 2.31908 12.1032 3.27708 13.3515C3.27986 13.3558 3.28002 13.3609 3.28296 13.3651C3.28719 13.3713 3.29394 13.3741 3.29842 13.38C3.96816 14.2571 4.83124 14.9679 5.82052 15.457C6.8098 15.9461 7.89859 16.2004 9.00218 16.2C10.1058 16.1997 11.1944 15.9447 12.1833 15.4549C13.1723 14.9651 14.0349 14.2538 14.704 13.3762C14.7076 13.3715 14.7133 13.37 14.7166 13.3651C14.7196 13.3609 14.7198 13.3558 14.7225 13.3514C15.6805 12.1031 16.1998 10.5736 16.1998 9.00004C16.1998 7.4265 15.6805 5.89694 14.7225 4.64863C14.7198 4.64433 14.7196 4.63922 14.7167 4.63496ZM14.2297 12.5081C13.7568 12.2305 13.2562 12.0032 12.736 11.8298C12.9139 11.0483 13.0148 10.2512 13.0374 9.45005H15.277C15.2017 10.5435 14.8405 11.598 14.2297 12.5081ZM2.7226 9.45005H4.96219C4.9848 10.2512 5.08576 11.0483 5.26363 11.8298C4.74344 12.0032 4.24283 12.2305 3.76995 12.5081C3.15912 11.598 2.79795 10.5435 2.7226 9.45005ZM3.76995 5.49201C4.24283 5.76959 4.74344 5.99693 5.26363 6.17033C5.08576 6.95183 4.9848 7.74887 4.96219 8.55005H2.7226C2.79795 7.45658 3.15912 6.40207 3.76995 5.49201ZM9.44981 6.73615C10.2616 6.71104 11.0688 6.60457 11.8593 6.41834C12.0196 7.11847 12.1129 7.83225 12.138 8.55005H9.44981V6.73615ZM9.44981 5.83655V2.77531C10.3431 3.04452 11.128 4.09066 11.6178 5.55316C10.906 5.71772 10.1799 5.81263 9.44981 5.83655ZM8.54981 2.77531V5.83655C7.81966 5.81264 7.09358 5.71774 6.38182 5.55318C6.87159 4.09067 7.65656 3.04452 8.54981 2.77531ZM8.54981 6.73615V8.55005H5.86162C5.8867 7.83225 5.98001 7.11847 6.14028 6.41834C6.93081 6.60457 7.73803 6.71104 8.54981 6.73615ZM5.86162 9.45005H8.54981V11.2639C7.73803 11.2891 6.93081 11.3955 6.14028 11.5818C5.98001 10.8816 5.8867 10.1678 5.86162 9.45005ZM8.54981 12.1635V15.2248C7.65656 14.9556 6.87159 13.9094 6.38182 12.4469C7.09358 12.2824 7.81966 12.1875 8.54981 12.1635ZM9.44981 15.2248V12.1635C10.1799 12.1875 10.906 12.2824 11.6178 12.4469C11.128 13.9094 10.3431 14.9556 9.44981 15.2248ZM9.44981 11.2639V9.45005H12.138C12.1129 10.1678 12.0196 10.8816 11.8593 11.5818C11.0688 11.3955 10.2616 11.289 9.44981 11.2639ZM13.0374 8.55005C13.0148 7.74887 12.9139 6.95183 12.736 6.17033C13.2562 5.99693 13.7568 5.76959 14.2297 5.49201C14.8405 6.40207 15.2017 7.45658 15.277 8.55005H13.0374ZM13.6665 4.78281C13.2909 4.99346 12.8968 5.16921 12.489 5.30784C12.2493 4.54271 11.8828 3.82324 11.4048 3.17944C12.2681 3.53986 13.0406 4.0875 13.6665 4.78281ZM6.5948 3.17944C6.11683 3.82324 5.75032 4.5427 5.51055 5.30784C5.10282 5.16921 4.70867 4.99346 4.33304 4.78281C4.95897 4.0875 5.73147 3.53986 6.5948 3.17944ZM4.33306 13.2173C4.70869 13.0066 5.10284 12.8309 5.51057 12.6923C5.75034 13.4574 6.11685 14.1769 6.59482 14.8207C5.7315 14.4602 4.95899 13.9126 4.33306 13.2173ZM11.4048 14.8207C11.8828 14.1769 12.2493 13.4574 12.489 12.6923C12.8968 12.8309 13.2909 13.0066 13.6665 13.2173C13.0406 13.9126 12.2681 14.4602 11.4048 14.8207Z" fill="black"/>
</g>
<defs>
<clipPath id="clip0_241_1951">
<rect width="18" height="18" fill="white"/>
</clipPath>
</defs>
</svg>
